<?xml version="1.0" standalone="no"?><!DOCTYPE svg PUBLIC "-//W3C//DTD SVG 1.1//EN" "http://www.w3.org/Graphics/SVG/1.1/DTD/svg11.dtd"><svg t="1596900498288" class="icon" viewBox="0 0 1024 1024" version="1.1" xmlns="http://www.w3.org/2000/svg" p-id="12918" xmlns:xlink="http://www.w3.org/1999/xlink" width="200" height="200"><defs><style type="text/css"></style></defs><path d="M575.57 667.82H252.89c-18.52 0-33.46-14.94-33.46-33.46 0-18.52 14.94-33.46 33.46-33.46h322.57c18.52 0 33.47 14.94 33.47 33.46 0.1 18.41-14.84 33.46-33.36 33.46z m-63.72-166.28H252.89c-18.52 0-33.46-14.95-33.46-33.47s14.94-33.46 33.46-33.46h258.96c18.53 0 33.47 14.95 33.47 33.46 0 18.42-14.95 33.47-33.47 33.47z m180-166.39H252.89c-18.52 0-33.46-14.94-33.46-33.46 0-18.52 14.94-33.46 33.46-33.46h438.96c18.53 0 33.47 14.94 33.47 33.46 0 18.51-14.95 33.46-33.47 33.46z" p-id="12919"></path><path d="M252.89 131.93c-55.45 0-100.51 45.06-100.51 100.51v558.2c0 55.45 45.05 100.51 100.51 100.51h517.79c55.45 0 100.5-45.06 100.5-100.51V232.33c0-55.45-35.05-100.51-120.5-100.51H222.89l30 0.11z m517.89 826.15H252.89c-92.28 0-167.44-75.17-167.44-167.44V232.33c0-92.38 75.16-167.44 167.44-167.44h517.79c92.38 0 167.44 75.16 167.44 167.44v558.2c0.11 92.38-75.06 167.55-167.34 167.55z" p-id="12920"></path></svg>